<svg version="1" xmlns="http://www.w3.org/2000/svg" width="601.333" height="601.333" viewBox="0 0 451.000000 451.000000"><path d="M64.9 65c-.1.3-.2 15-.3 32.8l-.1 32.2 47.2 47.2c26 26 47.3 47.6 47.3 47.9 0 .4-21.3 22-47.3 48l-47.3 47.4.1 32.5v32.5l32.8.1 32.7.2 47.6-47.6 47.6-47.5 47.6 47.6 47.7 47.5 32.5-.1 32.5-.2.1-32.5.2-32.5-47.6-47.7-47.5-47.7 47.5-47.5 47.6-47.6-.2-32.8-.1-32.7H353l-32.5-.1-47.4 47.3c-26 26-47.6 47.3-48 47.3-.3 0-21.9-21.3-47.8-47.2L130 64.5H97.5c-17.9 0-32.6.2-32.6.5z"/></svg>